<?xml version="1.0" standalone="no"?><!DOCTYPE svg PUBLIC "-//W3C//DTD SVG 1.1//EN" "http://www.w3.org/Graphics/SVG/1.1/DTD/svg11.dtd"><svg t="1742559151507" class="icon" viewBox="0 0 1024 1024" version="1.1" xmlns="http://www.w3.org/2000/svg" p-id="2994" xmlns:xlink="http://www.w3.org/1999/xlink" width="200" height="200"><path d="M220.58496 317.10208h187.96032V100.6592h394.82368v300.95872h49.4592V51.2H372.58752L171.20256 283.17696v118.44096h49.3824zM114.47808 440.77568v322.176h56.70912v209.18784l681.63072 0.66048v-209.8432h56.69888V440.77568H114.47808z m510.98112 63.02208h40.50944v79.73888l75.06944-79.73888h53.16096l-77.3888 77.3888 79.21152 118.8352h-50.00192L687.7696 611.6352l-21.8112 21.59104v66.79552h-40.4992V503.79776z m-179.57376 0h86.57408c34.97984 0 63.02208 26.57792 63.02208 63.44192 0 35.39968-26.08128 61.5168-63.02208 61.5168h-45.53728v71.25504h-41.0368V503.79776z m-147.7632 0h47.5648l69.15584 196.224h-44.61056l-12.42112-40.51968H285.39904l-13.92128 40.51968h-43.38688l70.03136-196.224z m505.24672 419.50208l-582.784-0.53248v-159.81056h582.784v160.34304z" p-id="2995"></path><path d="M559.37024 566.13888c0.7424-20.3008-16.89088-28.416-33.35168-28.416h-39.07584v57.64096h39.07584c21.76 0 32.72192-10.99264 33.35168-29.22496zM321.47456 547.79904l-25.45152 78.01344h49.98144z" p-id="2996"></path></svg>