<?xml version="1.0" standalone="no"?><!DOCTYPE svg PUBLIC "-//W3C//DTD SVG 1.1//EN" "http://www.w3.org/Graphics/SVG/1.1/DTD/svg11.dtd"><svg t="1742559089185" class="icon" viewBox="0 0 1024 1024" version="1.1" xmlns="http://www.w3.org/2000/svg" p-id="1627" xmlns:xlink="http://www.w3.org/1999/xlink" width="200" height="200"><path d="M220.55936 317.10208h187.98592V100.6592h394.81344v300.95872h49.4592V51.2H372.5568L171.20256 283.10528v118.51264h49.3568zM114.46272 440.77568v322.176h56.72448v209.1776l681.63072 0.67072v-209.82784h56.71936V440.77568H114.46272z m451.69664 77.63968l30.1312 122.37312 30.15168-122.37312h50.2784v166.92224h-32.72192V570.9824l-31.11936 114.3552h-34.67776l-30.8992-113.82784v113.82784h-32.4096l-0.01024-166.92224h51.2768z m-206.38208 0h135.71072v29.16352h-50.51392v137.76384H410.0608v-137.76384h-50.28352v-29.16352z m-153.81504 0h34.89792v62.85824h65.14688v-62.85824h35.12832v166.92224h-35.12832v-74.9056H240.85504v74.9056h-34.89792v-166.92224z m597.39648 404.89984l-582.80448-0.5632v-159.77984h582.80448v160.34304z m14.78144-237.97248h-117.632v-166.93248h34.90816v136.48384h82.71872v30.44864z" p-id="1628"></path></svg>