<?xml version="1.0" standalone="no"?><!DOCTYPE svg PUBLIC "-//W3C//DTD SVG 1.1//EN" "http://www.w3.org/Graphics/SVG/1.1/DTD/svg11.dtd"><svg t="1742559076126" class="icon" viewBox="0 0 1024 1024" version="1.1" xmlns="http://www.w3.org/2000/svg" p-id="1322" xmlns:xlink="http://www.w3.org/1999/xlink" width="200" height="200"><path d="M220.52352 317.10208h187.97568V100.6592h394.83904v300.95872h49.46432V51.2H372.52608l-201.3696 231.97696v118.44096h49.36704zM114.42176 440.77568v322.176h56.73472v209.1776L852.7872 972.8v-209.82784h56.79616V440.77568H114.42176z m478.28992 133.7088c5.36064-28.1088 22.17472-55.0656 48.68608-67.32288 13.18912-6.38976 27.73504-9.64096 42.34752-9.94816a110.0288 110.0288 0 0 1 42.86464 7.86944c24.3968 9.55392 44.01152 32.64512 45.74208 59.22816h-41.35424c-3.328-22.17472-27.95008-34.91328-48.8448-32.86528-21.504 0.75776-39.68512 17.49504-45.43488 37.64224-6.58944 23.2448-7.04512 49.37728 2.944 71.71584 8.04352 19.17952 28.09344 33.16736 49.22368 31.37536 23.17824-0.4608 44.99456-20.08064 45.38368-43.77088v-1.14688h-43.40224v-32.77312h81.79712v105.48224h-33.93024c-0.3072-6.51264-0.59904-13.02528-0.9216-19.5328-11.88864 20.08064-36.89472 26.37312-58.76736 26.37312-22.10816 0.52736-43.70944-9.18016-58.83904-25.06752-26.97728-27.89376-34.97984-70.0928-27.4944-107.25888zM412.82048 503.79776c30.66368 0.07168 61.29664-0.23552 91.86816 0.15872 24.3968 0.98816 47.1296 18.00192 54.22592 41.43104 8.18688 24.90368 1.9968 56.2688-20.35712 71.79776-13.50144 10.1376-30.68416 12.1856-47.04256 11.57632h-37.63712v71.2704h-41.06752V503.79776z m-161.55648 122.01472h37.26848v18.02752c0 19.51744 7.63392 29.60896 23.32672 29.60896 20.0192 0 23.33696-14.99648 23.33696-30.15168v-139.5712H376.32v143.38048c0 17.93024-5.39648 32.39936-16.30208 43.47904-10.81856 10.81344-26.86976 16.28672-48.17408 16.28672-19.09248 0-34.00192-5.08928-44.58496-15.0784-10.6752-10.29632-15.99488-25.51808-15.99488-45.81888v-20.16256z m552.0896 297.50272l-582.83008-0.5632v-159.77984h582.83008v160.34304z" p-id="1323"></path><path d="M523.19232 580.52096c7.05024-14.01856 2.31936-34.67776-13.49632-40.21248-6.21056-2.05824-12.66688-2.5088-19.08224-2.5856-6.528-0.0768-13.0304 0.3072-19.48672 0h-17.24416v57.64096h38.96832c11.70944 0.36864 25.15968-3.25632 30.34112-14.84288z" p-id="1324"></path></svg>