<?xml version="1.0" standalone="no"?><!DOCTYPE svg PUBLIC "-//W3C//DTD SVG 1.1//EN" "http://www.w3.org/Graphics/SVG/1.1/DTD/svg11.dtd"><svg t="1742559082996" class="icon" viewBox="0 0 1024 1024" version="1.1" xmlns="http://www.w3.org/2000/svg" p-id="1474" xmlns:xlink="http://www.w3.org/1999/xlink" width="200" height="200"><path d="M220.5696 317.10208h187.97568V100.6592h394.83904v300.95872h49.4592V51.2H372.57216l-201.3696 231.97696v118.44096h49.36704zM114.46272 440.77568v322.176h56.73472v209.18784l681.63072 0.66048v-209.8432h56.704V440.77568H114.46272z m511.54944 191.31904c-11.50464-10.5984-28.23168-10.96192-42.63936-14.976-20.90496-5.15072-44.06784-10.00448-58.77248-26.96192-11.35104-14.03392-12.42624-33.84832-8.40192-50.74944 5.50912-22.48192 27.4944-36.57216 49.21856-40.43776a118.77376 118.77376 0 0 1 21.81632-1.8432c22.11328 0 44.39552 6.2208 60.28288 22.11328 11.05408 11.13088 16.72704 26.79808 17.28512 42.32192h-39.04c-0.50176-13.07648-9.58976-25.50784-22.76864-28.01152-14.0288-2.7904-29.99296-3.42016-42.66496 4.16256-11.95008 7.57248-11.64288 28.1088 1.46432 34.37568 15.36512 8.18688 33.0752 9.6256 49.52064 14.77632 17.18784 5.16096 36.20352 9.7024 48.71168 23.56224 11.59168 14.91456 13.17888 35.75296 8.64256 53.55008-6.30784 20.91008-25.99424 34.90304-46.58688 39.45984-20.5312 5.07904-42.25536 3.72224-62.78656-0.9728-20.44928-4.54144-38.63552-17.4848-45.90592-39.30112-1.90464-5.84192-3.72224-22.11328-3.72224-22.11328h39.62368c-0.54272 14.91968 11.7248 27.12064 25.6768 30.37696 14.68416 3.47648 31.2576 3.31264 44.75904-4.08576 12.12928-6.59456 15.3088-24.94464 6.28736-35.24608z m-272.96768-6.45632h37.23776v18.02752c0 19.54304 7.72096 29.60896 23.39328 29.60896 19.93728 0 23.34208-14.99648 23.34208-30.16192l0.01024-139.47904h41.04192v143.38048c0 17.86368-5.39648 32.4096-16.21504 43.37152-10.81344 10.83392-26.86976 16.29184-48.17408 16.29184-19.13344 0-33.9968-5.08928-44.672-15.07328-10.5984-10.30656-15.96416-25.5232-15.96416-45.80864v-20.15744z m450.36032 297.66144l-582.8352-0.53248v-159.81056h582.8352v160.34304z" p-id="1475"></path></svg>