<?xml version="1.0" standalone="no"?><!DOCTYPE svg PUBLIC "-//W3C//DTD SVG 1.1//EN" "http://www.w3.org/Graphics/SVG/1.1/DTD/svg11.dtd"><svg t="1742559116749" class="icon" viewBox="0 0 1024 1024" version="1.1" xmlns="http://www.w3.org/2000/svg" p-id="2231" xmlns:xlink="http://www.w3.org/1999/xlink" width="200" height="200"><path d="M220.52352 317.10208h187.97568V100.6592h394.83904v300.95872h49.46432V51.2H372.52608l-201.3696 231.97696v118.44096h49.36704zM114.42176 440.77568v322.176h56.73472v209.1776L852.7872 972.8v-209.82784h56.79616V440.77568H114.42176z m622.97088 184.35584c-6.90688-13.11744-28.25728-13.33248-39.84384-13.33248v-26.87488c12.9024-0.0768 28.78976-1.14688 36.58752-13.10208 5.30944-11.00288 4.26496-24.99584-2.176-35.23584-7.36256-10.22464-23.48544-11.20256-33.54624-4.608-9.18016 6.0672-12.672 17.57184-12.3648 28.09344h-35.81952c-0.76288-22.03136 10.51136-44.90752 30.67392-55.0656 9.51808-4.992 20.64384-7.56224 31.79008-7.72096 18.62656-0.23552 37.30432 6.20544 48.76288 19.38432 22.64576 25.89696 13.0304 64.53248-10.13248 77.99808 22.94784 9.32864 29.0816 30.6944 29.2352 48.41984 0.22528 22.49728-11.2128 45.58848-32.04096 55.27552-20.7616 10.08128-48.93696 11.35616-67.2512 2.80064-26.13248-12.1088-34.304-33.84832-34.304-58.91584h36.9408c-0.28672 11.57632 3.0464 25.82528 15.22688 30.3616 12.95872 5.15072 30.44864 2.49856 37.66784-10.5984 5.81632-11.21792 6.41024-25.68192 0.59392-36.87936zM470.2976 503.63904h86.65088c34.98496 0 62.93504 26.57792 62.93504 63.55968 0 35.36384-26.04032 61.40416-62.93504 61.40416h-45.52704v71.28576h-41.12384v-196.2496z m-226.88256 0h60.28288l35.45088 143.8976 35.50208-143.8976h59.07968v196.23424h-38.40512v-134.50752l-36.65408 134.50752h-40.73472l-36.352-133.89312v133.89312h-38.1696V503.63904z m559.93856 419.67616l-582.83008-0.5632v-159.77984h582.83008v160.34304z" p-id="2232"></path><path d="M583.86944 565.98016c0.68608-20.22912-16.98304-28.32896-33.40288-28.32896h-39.02464v57.64096h39.02464c21.72416 0 32.71168-10.99264 33.40288-29.312z" p-id="2233"></path></svg>