<?xml version="1.0" standalone="no"?><!DOCTYPE svg PUBLIC "-//W3C//DTD SVG 1.1//EN" "http://www.w3.org/Graphics/SVG/1.1/DTD/svg11.dtd"><svg t="1742559141381" class="icon" viewBox="0 0 1024 1024" version="1.1" xmlns="http://www.w3.org/2000/svg" p-id="2840" xmlns:xlink="http://www.w3.org/1999/xlink" width="200" height="200"><path d="M220.5952 317.10208h187.90912V100.6592h394.79808v300.95872h49.536V51.2H372.51072L171.24864 283.17696v118.44096h49.34656zM114.432 440.77568v322.176h56.71424v209.1776l681.63072 0.67072v-209.82784h56.79616V440.77568H114.432z m529.59744 182.84544l71.51616-120.05376h43.17696v123.60704h22.17472v29.824h-22.17472v42.88h-38.40512v-42.88h-76.28288v-33.37728zM470.07232 503.56736c30.592 0.14848 61.25568-0.15872 91.86816 0.23552 24.38144 0.98816 47.08864 18.02752 54.2976 41.4464 8.09984 24.90368 1.96608 56.25856-20.44928 71.80288-13.39904 10.20416-30.65344 12.18048-47.01696 11.55584h-37.66784v71.28576h-41.03168V503.56736z m-226.8928 0h60.27776l35.45088 143.96928 35.456-143.96928H433.5104v196.31104h-38.4768v-134.50752l-36.63872 134.50752h-40.77568l-36.352-133.89312v133.89312h-38.08768V503.56736z m560.12288 419.74784l-582.7584-0.5632v-159.77984h582.7584v160.34304z" p-id="2841"></path><path d="M580.42368 580.36224c7.04512-14.0032 2.44736-34.7648-13.47072-40.22272-6.21568-2.01728-12.67712-2.56-19.09248-2.64192l-36.74112 0.06656v57.64096h39.02976c11.648 0.34304 25.216-3.18464 30.27456-14.84288zM721.14688 557.94688l-40.1408 69.2224h40.1408z" p-id="2842"></path></svg>