<svg t="1742559022026" class="icon" viewBox="0 0 1024 1024" version="1.1" xmlns="http://www.w3.org/2000/svg" p-id="1017" width="200" height="200"><path d="M220.5952 317.10208h187.904V100.6592h394.8032v300.95872h49.48992V51.2H372.51072L171.15648 283.17696v118.44096h49.43872zM114.432 440.77568v322.176h56.70912v209.1776l681.6256 0.6656v-209.82784h56.80128V440.77568H114.432z m495.6672 133.53472c5.26848-28.05248 22.17984-54.97856 48.68096-67.34336 13.19936-6.35392 27.72992-9.5232 42.368-9.84064 14.67904-0.29184 29.37856 2.33984 42.83904 7.808 24.41216 9.6256 44.032 32.62976 45.76256 59.29472h-41.35936c-3.40992-22.26176-27.93984-35.00032-48.83968-32.95232-21.50912 0.82944-39.76192 17.57184-45.45024 37.71904-6.67136 23.23968-7.02976 49.31584 2.95936 71.72096 8.0384 19.09248 28.08832 33.17248 49.21856 31.28832 23.17824-0.48128 44.98944-19.98848 45.37856-43.68896v-1.152h-43.4688v-32.78848h81.87904v105.40544h-33.94048c-0.31232-6.51776-0.59904-12.9536-0.9216-19.47648-11.88864 20.10112-36.95104 26.38336-58.84928 26.29632-22.1184 0.54272-43.6224-9.15968-58.76224-24.9856-26.96192-27.95008-34.98496-70.03648-27.4944-107.30496zM413.50144 503.63904h43.47904l77.98784 126.17728V503.63904h38.41024v196.23424h-37.87776L451.584 568.0128v131.86048h-38.08256V503.63904z m-179.5584 0c30.59712 0.07168 61.2608-0.23552 91.84256 0.15872 24.40192 0.98816 47.0272 18.02752 54.22592 41.44128 8.18688 25.00096 1.99168 56.25856-20.44416 71.808-13.40928 10.13248-30.6688 12.1856-46.95552 11.55584h-37.632v71.28576h-41.0368v-196.2496z m569.35936 419.67616l-582.70208-0.5632v-159.77984h582.70208v160.34304z" p-id="1018"></path><path d="M344.19712 580.37248c7.04-14.0032 2.41664-34.69312-13.4912-40.22272-6.18496-2.03264-12.63616-2.49856-19.07712-2.57024-6.41536-0.0768-12.928 0.3072-19.36896 0.07168h-17.27488v57.56928h38.99904c11.6736 0.34816 25.1392-3.17952 30.21312-14.848z" p-id="1019"></path></svg>