<?xml version="1.0" standalone="no"?><!DOCTYPE svg PUBLIC "-//W3C//DTD SVG 1.1//EN" "http://www.w3.org/Graphics/SVG/1.1/DTD/svg11.dtd"><svg t="1742559109733" class="icon" viewBox="0 0 1024 1024" version="1.1" xmlns="http://www.w3.org/2000/svg" p-id="2080" xmlns:xlink="http://www.w3.org/1999/xlink" width="200" height="200"><path d="M220.544 317.09696h187.9552V100.65408h394.82368v300.9536h49.46432V51.2H372.54656L171.16672 283.17184v118.43584h49.37728zM114.44224 440.77056v322.17088h56.70912v209.25952l681.62048 0.59904v-209.8432h56.79104V440.77056H114.44224z m486.57408 133.47328c5.36576-28.03712 22.26176-54.97856 48.70656-67.2512 13.19936-6.46144 27.73504-9.64096 42.42432-9.94816 14.62272-0.29184 29.31712 2.3552 42.78784 7.82336 24.38144 9.6256 44.07296 32.7168 45.80864 59.37152h-41.35424c-3.39968-22.26176-27.9552-35.06176-48.93184-32.95232-21.50912 0.75264-39.68512 17.48992-45.44 37.71904-6.58944 23.23456-7.04 49.3056 2.944 71.71584 8.13056 19.09248 28.12416 33.17248 49.24928 31.28832 23.23968-0.47616 45.05088-19.98848 45.35296-43.69408v-1.14688h-43.392v-32.7936h81.88416v105.4976h-34.02752c-0.29696-6.528-0.59904-13.0304-0.91648-19.56352-11.86304 20.10112-36.85888 26.38336-58.76224 26.38336-22.1184 0.52224-43.62752-9.18016-58.8544-25.07264-26.94144-27.9552-34.97472-70.1184-27.47904-107.37664zM462.4384 503.55712l42.84928 137.7792 42.5728-137.7792h42.5728l-66.50368 196.3008h-38.68672l-66.52416-196.3008h43.71968z m-103.05536 128.5632c-11.53536-10.69568-28.25728-11.05408-42.66496-15.06816-20.91008-5.22752-44.06784-9.99936-58.76224-27.13088-11.35616-13.98784-12.42112-33.83808-8.40704-50.81088 5.53984-22.56384 27.49952-36.71552 49.21856-40.5248a120.50944 120.50944 0 0 1 21.80096-1.90464c22.11328 0.07168 44.39552 6.28224 60.21632 22.17984 11.07968 11.15136 16.74752 26.80832 17.26976 42.42944h-38.99904c-0.44544-13.12256-9.53344-25.59488-22.72256-28.02176-13.99808-2.81088-29.99296-3.4816-42.62912 4.0704-11.98592 7.64416-11.67872 28.24192 1.41824 34.62144 15.3088 8.16128 33.11616 9.53856 49.46944 14.7456 17.18272 5.16608 36.26496 9.69728 48.768 23.57248 11.59168 15.00672 13.17376 35.90144 8.64256 53.7856-6.36928 20.9152-25.984 34.97984-46.66368 39.54176-20.50048 5.05344-42.25536 3.77856-62.71488-0.98816-20.44416-4.5312-38.62016-17.49504-45.80352-39.3728-1.96096-5.83168-3.77856-22.19008-3.77856-22.19008h39.53664c-0.44544 14.91968 11.8272 27.12064 25.73824 30.43328 14.71488 3.49184 31.29344 3.34336 44.75392-4.09088 12.12928-6.65088 15.22688-24.99584 6.31296-35.2768z m443.93984 291.2512l-582.77888-0.63488v-159.77984h582.77888v160.41472z" p-id="2081"></path></svg>