<?xml version="1.0" standalone="no"?><!DOCTYPE svg PUBLIC "-//W3C//DTD SVG 1.1//EN" "http://www.w3.org/Graphics/SVG/1.1/DTD/svg11.dtd"><svg t="1742559101324" class="icon" viewBox="0 0 1024 1024" version="1.1" xmlns="http://www.w3.org/2000/svg" p-id="1929" xmlns:xlink="http://www.w3.org/1999/xlink" width="200" height="200"><path d="M220.544 317.09696h187.9552V100.65408h394.82368v300.9536h49.46432V51.2H372.54656L171.16672 283.17184v118.43584h49.37728zM114.44224 440.77056v322.17088h56.70912v209.25952l681.62048 0.59904v-209.8432h56.79104V440.77056H114.44224z m670.1824 63.02208v34.2272h-59.38688v161.9968h-41.0368v-161.9968H625.0496v-34.2272h159.57504z m-356.41344 0h48.53248l35.456 63.52896 35.75808-63.52896h47.5392l-59.6736 94.208 63.8464 102.02112h-49.98656l-37.48352-67.39456-39.6288 67.39456h-47.85664l63.52896-100.1984-60.032-96.03072z m-29.30176 0v34.2272h-59.392v161.9968h-41.03168v-161.9968H239.32928l-0.00512-34.2272h159.58528z m404.41344 419.57888l-582.77888-0.63488v-159.77984h582.77888v160.41472z" p-id="1930"></path></svg>