<?xml version="1.0" standalone="no"?><!DOCTYPE svg PUBLIC "-//W3C//DTD SVG 1.1//EN" "http://www.w3.org/Graphics/SVG/1.1/DTD/svg11.dtd"><svg t="1742559122963" class="icon" viewBox="0 0 1024 1024" version="1.1" xmlns="http://www.w3.org/2000/svg" p-id="2385" xmlns:xlink="http://www.w3.org/1999/xlink" width="200" height="200"><path d="M220.544 317.10208h187.99104V100.6592h394.81344v300.95872h49.4592V51.2H372.54656L171.19744 283.10528v118.51264h49.34656zM114.45248 440.77568v322.176h56.72448v209.1776l681.63072 0.67072v-209.82784h56.73472V440.77568H114.45248z m536.2176 63.02208h41.11872v160.48128h97.24928v35.75296h-138.368V503.79776z m-218.28096 0h60.29312l35.45088 143.8976 35.51744-143.8976h59.07968v196.23424h-38.41024v-134.50752l-36.64384 134.50752h-40.83712l-36.35712-133.89312v133.89312h-38.0928V503.79776z m-193.87904 0h48.46592l35.52256 63.4624 35.75808-63.4624h47.5648l-59.67872 94.208 63.85664 102.02624H360.0896l-37.57568-67.39968-39.60832 67.39968h-47.85664l63.52896-100.20352-60.06784-96.03072z m564.8384 419.51744l-582.80448-0.5632v-159.77984h582.80448v160.34304z" p-id="2386"></path></svg>