<?xml version="1.0" standalone="no"?><!DOCTYPE svg PUBLIC "-//W3C//DTD SVG 1.1//EN" "http://www.w3.org/Graphics/SVG/1.1/DTD/svg11.dtd"><svg t="1742559131050" class="icon" viewBox="0 0 1024 1024" version="1.1" xmlns="http://www.w3.org/2000/svg" p-id="2536" xmlns:xlink="http://www.w3.org/1999/xlink" width="200" height="200"><path d="M220.53888 317.10208h187.96032V100.6592H803.328v300.95872h49.46432V51.2H372.54144L171.15648 283.17696v118.44096h49.3824zM114.432 440.77568v322.176h56.70912v209.1776l681.6256 0.6656v-209.82784h56.80128V440.77568H114.432zM680.64256 503.9616c24.3712 0.98816 47.03232 18.00192 54.23104 41.43104 8.18176 24.90368 1.96096 56.2688-20.44928 71.79776-13.39904 10.1376-30.6688 12.1856-47.03232 11.57632H629.76v71.2704h-41.0624l-0.02048-196.23424c30.67392 0.08192 61.35296-0.31232 91.96544 0.15872z m-189.80864-0.16384h41.0368v196.23424h-41.0368V503.79776z m-205.07648 161.3056l101.93408-127.07328H288.71168v-34.23232h150.41536v32.1792l-102.55872 129.1264h102.55872v34.9184H285.75744v-34.9184zM803.328 923.3152l-582.79424-0.5632v-159.77984H803.328v160.34304z" p-id="2537"></path><path d="M699.0592 580.52096c7.01952-14.01856 2.41152-34.76992-13.50144-40.21248-6.23104-2.05824-12.64128-2.5856-19.0976-2.6624-6.43072-0.07168-12.94848 0.37888-19.38944 0.0768h-17.32096v57.64096h39.08096c11.648 0.36864 25.1392-3.25632 30.22848-14.84288z" p-id="2538"></path></svg>